<?xml version="1.0" encoding="UTF-8" standalone="no"?>
<!-- Created with Inkscape (http://www.inkscape.org/) -->

<svg
   width="18.228148mm"
   height="14.662763mm"
   viewBox="0 0 18.228147 14.662763"
   version="1.1"
   id="svg1"
   xml:space="preserve"
   inkscape:version="1.3.2 (091e20e, 2023-11-25)"
   sodipodi:docname="colibri.svg"
   xmlns:inkscape="http://www.inkscape.org/namespaces/inkscape"
   xmlns:sodipodi="http://sodipodi.sourceforge.net/DTD/sodipodi-0.dtd"
   xmlns="http://www.w3.org/2000/svg"
   xmlns:svg="http://www.w3.org/2000/svg"><sodipodi:namedview
     id="namedview1"
     pagecolor="#ffffff"
     bordercolor="#000000"
     borderopacity="0.25"
     inkscape:showpageshadow="2"
     inkscape:pageopacity="0.0"
     inkscape:pagecheckerboard="0"
     inkscape:deskcolor="#d1d1d1"
     inkscape:document-units="mm"
     inkscape:zoom="3.6904139"
     inkscape:cx="18.561604"
     inkscape:cy="6.3678494"
     inkscape:window-width="1440"
     inkscape:window-height="842"
     inkscape:window-x="0"
     inkscape:window-y="25"
     inkscape:window-maximized="0"
     inkscape:current-layer="layer1" /><defs
     id="defs1" /><g
     inkscape:label="Capa 1"
     inkscape:groupmode="layer"
     id="layer1"
     transform="translate(-255.00079,-227.96997)"><path
       style="fill:#1f3f45;fill-opacity:1"
       d="m 271.26188,242.62028 c -1.19499,-0.0574 -2.33659,-0.29154 -3.25232,-0.66699 -0.5443,-0.22316 -1.24805,-0.63814 -1.63911,-0.96654 -0.36146,-0.30353 -0.72342,-0.6613 -0.95047,-0.93945 -0.075,-0.0919 -0.14935,-0.1827 -0.16525,-0.20186 -0.11978,-0.14434 -0.47787,-0.67682 -0.60238,-0.89573 -0.20721,-0.36433 -0.5606,-1.05862 -0.5606,-1.10138 0,-0.006 -0.036,-0.0877 -0.0801,-0.18223 -0.044,-0.0945 -0.0928,-0.211 -0.10838,-0.25881 -0.0215,-0.066 -0.0438,-0.0896 -0.0929,-0.0981 -0.0838,-0.0145 -1.06451,-0.26774 -1.2815,-0.33091 -0.74432,-0.21665 -1.29651,-0.45666 -1.76927,-0.76903 -0.70647,-0.46679 -1.27857,-1.06661 -1.881,-1.97212 -0.0916,-0.13774 -0.17287,-0.25581 -0.18053,-0.26237 -0.008,-0.007 -0.0503,-0.0656 -0.0947,-0.13123 -0.11843,-0.17496 -0.43296,-0.47705 -0.63189,-0.60692 -0.35835,-0.23393 -0.88482,-0.38507 -1.70606,-0.48978 -0.65907,-0.084 -1.02658,-0.15632 -1.17513,-0.23118 -0.0663,-0.0334 -0.0895,-0.06 -0.0895,-0.10284 0,-0.0318 0.0134,-0.0661 0.0298,-0.0764 0.0164,-0.0103 0.32511,-0.0262 0.686,-0.0354 0.44323,-0.0113 0.72198,-0.0293 0.85898,-0.0556 0.70127,-0.13442 1.3172,-0.3703 2.43379,-0.93207 0.77489,-0.38985 0.84223,-0.4199 1.13682,-0.50728 0.35436,-0.1051 0.43566,-0.12136 0.75045,-0.15009 0.44013,-0.0402 0.80174,0.0277 1.09625,0.20588 0.27655,0.16726 0.57172,0.53057 0.57172,0.70369 0,0.0922 -0.0248,0.0911 -0.32073,-0.0137 -0.48804,-0.17281 -0.68044,-0.2106 -1.07512,-0.21118 -0.38287,-5.7e-4 -0.54308,0.0294 -0.89477,0.16726 -0.66724,0.26159 -1.04849,0.71812 -1.04959,1.25686 -5.3e-4,0.25736 0.10022,0.62692 0.25383,0.93107 0.058,0.11491 0.28857,0.49049 0.31762,0.51746 0.007,0.007 0.0712,0.0817 0.14242,0.16702 0.26728,0.31993 0.93942,0.93057 1.02429,0.93057 0.0128,0 0.0269,0.009 0.0312,0.0195 0.008,0.0197 0.29419,0.21906 0.3144,0.21906 0.006,0 0.0844,0.0448 0.1743,0.0996 0.32663,0.19908 0.9197,0.45982 1.39232,0.61213 0.30376,0.0979 0.80189,0.21226 0.82478,0.18936 0.0165,-0.0165 -0.0145,-0.19326 -0.14122,-0.80569 -0.21607,-1.04419 -0.26441,-1.4874 -0.24722,-2.26676 0.0133,-0.60037 0.0429,-0.82373 0.15162,-1.14368 0.25316,-0.74472 0.75517,-1.30398 1.51154,-1.68392 0.32361,-0.16256 0.9061,-0.34754 1.45574,-0.46231 0.0722,-0.0151 0.28692,-0.0599 0.47721,-0.0997 0.19029,-0.0397 0.4104,-0.0873 0.48914,-0.10576 0.0787,-0.0184 0.21144,-0.0455 0.29488,-0.0601 0.0834,-0.0147 0.25523,-0.0521 0.38177,-0.0832 0.12653,-0.0311 0.31596,-0.073 0.42094,-0.0931 0.31598,-0.0606 1.56111,-0.37147 1.70604,-0.42594 0.0197,-0.007 0.14317,-0.047 0.2744,-0.088 0.51911,-0.16206 1.38013,-0.55865 2.09234,-0.96373 0.2342,-0.1332 0.2904,-0.15526 0.42525,-0.16689 0.0855,-0.007 0.17405,-0.0206 0.19685,-0.0293 0.0387,-0.0148 0.0413,0.0209 0.0398,0.52947 -0.003,0.97294 -0.0343,1.55898 -0.10199,1.91294 -0.0692,0.36151 -0.23944,0.95033 -0.37899,1.31042 -0.099,0.2555 -0.41915,0.90415 -0.52717,1.06815 -0.12033,0.1827 -0.35924,0.52517 -0.39115,0.56072 -0.0177,0.0197 -0.10081,0.12169 -0.18476,0.22668 -0.22711,0.28403 -0.70241,0.76396 -0.95751,0.96684 -0.81059,0.64467 -1.54077,0.96293 -2.41575,1.05294 -0.27263,0.0281 -0.93342,0.0132 -1.10616,-0.0248 -0.0565,-0.0125 -0.16722,-0.0353 -0.24596,-0.0508 -0.46811,-0.092 -1.06321,-0.34943 -1.56287,-0.67614 -0.30793,-0.20134 -0.35791,-0.24623 -0.35791,-0.32142 v -0.0591 l 0.23596,0.0144 c 0.12977,0.008 0.30425,0.0253 0.38773,0.0387 1.27687,0.20478 2.28705,0.22389 3.01506,0.0571 0.46761,-0.10716 0.94047,-0.30329 1.23251,-0.5112 0.0348,-0.0248 0.0742,-0.0451 0.0875,-0.0451 0.0133,0 0.0277,-0.008 0.0321,-0.0183 0.004,-0.0101 0.0402,-0.0432 0.0795,-0.0736 0.20162,-0.15572 0.80802,-0.74669 0.95872,-0.93431 0.037,-0.0461 0.0941,-0.1139 0.12694,-0.15072 0.0328,-0.0368 0.15449,-0.20313 0.27039,-0.36958 0.21265,-0.30537 0.59922,-1.03443 0.66852,-1.26079 0.0195,-0.0636 0.069,-0.22295 0.11016,-0.35419 0.14163,-0.45191 0.24453,-1.03523 0.27049,-1.53325 0.007,-0.14157 0.005,-0.14852 -0.0415,-0.13376 -0.0777,0.0246 -0.34786,0.15519 -0.47875,0.23149 -0.68539,0.39954 -1.53545,0.69194 -2.67239,0.91923 -0.26247,0.0525 -0.55775,0.1074 -0.65617,0.12206 -0.0984,0.0147 -0.22727,0.036 -0.28633,0.0474 -0.0591,0.0114 -0.18253,0.032 -0.2744,0.0459 -1.58075,0.23831 -2.29031,0.43682 -2.85132,0.79772 -0.22213,0.1429 -0.22979,0.14925 -0.45338,0.37582 -0.31265,0.31682 -0.49434,0.65737 -0.61471,1.15219 -0.052,0.21375 -0.0582,1.11602 -0.0102,1.48274 0.0538,0.41125 0.19603,1.09317 0.36075,1.7299 0.12431,0.48055 0.12302,0.47698 0.17769,0.48832 0.0627,0.013 1.06935,0.16077 1.55393,0.22809 1.4233,0.19773 2.3709,0.46241 3.00551,0.8395 0.52326,0.31092 1.20616,1.01093 1.6804,1.72249 0.47547,0.71342 0.76819,1.37177 0.98238,2.20948 0.081,0.31665 0.18064,0.9526 0.15839,1.01057 -0.0131,0.0342 -0.0569,0.0388 -0.33201,0.0349 -0.1743,-0.002 -0.38133,-0.008 -0.46007,-0.0114 z m -0.23943,-1.01607 c -0.0513,-0.30668 -0.2007,-0.74613 -0.39147,-1.15128 -0.42719,-0.90725 -1.19345,-1.74275 -1.99333,-2.17347 -0.16898,-0.091 -0.68014,-0.29672 -0.88028,-0.35429 -0.39205,-0.11277 -0.79897,-0.20415 -1.2199,-0.27397 -0.0787,-0.0131 -0.20759,-0.035 -0.28633,-0.0486 -0.11846,-0.0206 -0.52719,-0.0705 -1.28251,-0.15671 -0.0623,-0.007 -0.11334,-0.004 -0.11334,0.008 0,0.0242 0.16511,0.41174 0.1902,0.44644 0.009,0.0131 0.0724,0.12777 0.13974,0.25477 0.10799,0.20356 0.20256,0.36227 0.2605,0.43719 0.0102,0.0131 0.072,0.10439 0.13754,0.20282 0.0655,0.0984 0.12512,0.18432 0.1325,0.19088 0.007,0.007 0.0973,0.11394 0.19972,0.23861 0.21858,0.26596 0.53486,0.59547 0.75297,0.78446 0.0852,0.0738 0.16702,0.14547 0.1819,0.15928 0.42162,0.39121 1.3895,0.96173 2.00159,1.17986 0.11812,0.0421 0.23623,0.0859 0.26247,0.0975 0.0263,0.0115 0.17657,0.0528 0.33405,0.0919 0.5004,0.12398 0.78444,0.16166 1.24882,0.16565 l 0.34211,0.003 z"
       id="path1"
       sodipodi:nodetypes="csccscsccccsccccccssscccccscccscccscsccscccsccccscccscccccscsccccsscccccscccccccccsccccsssccssscccccccssscccsccccccccsccccc" /></g></svg>
