<?xml version="1.0" encoding="UTF-8" standalone="no"?>
<!-- Created with Inkscape (http://www.inkscape.org/) -->

<svg
   width="38.114086mm"
   height="31.187731mm"
   viewBox="0 0 38.114086 31.187731"
   version="1.1"
   id="svg1"
   xml:space="preserve"
   inkscape:version="1.3.2 (091e20e, 2023-11-25)"
   sodipodi:docname="logo.svg"
   xmlns:inkscape="http://www.inkscape.org/namespaces/inkscape"
   xmlns:sodipodi="http://sodipodi.sourceforge.net/DTD/sodipodi-0.dtd"
   xmlns="http://www.w3.org/2000/svg"
   xmlns:svg="http://www.w3.org/2000/svg"><sodipodi:namedview
     id="namedview1"
     pagecolor="#ffffff"
     bordercolor="#000000"
     borderopacity="0.25"
     inkscape:showpageshadow="2"
     inkscape:pageopacity="0.0"
     inkscape:pagecheckerboard="0"
     inkscape:deskcolor="#d1d1d1"
     inkscape:document-units="mm"
     inkscape:zoom="1.3047584"
     inkscape:cx="-117.64631"
     inkscape:cy="36.405209"
     inkscape:window-width="1440"
     inkscape:window-height="842"
     inkscape:window-x="0"
     inkscape:window-y="25"
     inkscape:window-maximized="0"
     inkscape:current-layer="layer1" /><defs
     id="defs1" /><g
     inkscape:label="Capa 1"
     inkscape:groupmode="layer"
     id="layer1"
     transform="translate(-235.11485,-227.96997)"><path
       style="fill:#000000"
       d="m 256.30124,259.14546 c -0.607,-0.0266 -0.8057,-0.0519 -1.21087,-0.15399 -0.34205,-0.0862 -0.39997,-0.10536 -0.73377,-0.24292 -0.50372,-0.20758 -1.02386,-0.517 -1.47936,-0.88004 -0.18976,-0.15123 -0.7453,-0.68988 -0.93235,-0.90399 -0.14226,-0.16285 -0.38722,-0.46806 -0.54579,-0.68003 -0.0834,-0.11155 -0.16009,-0.21231 -0.17033,-0.22391 -0.0102,-0.0116 -0.0942,0.0287 -0.18646,0.0895 -0.0923,0.0608 -0.17245,0.11057 -0.17809,0.11057 -0.006,0 -0.0806,0.0427 -0.16667,0.095 -0.19361,0.11763 -0.82147,0.424 -1.07501,0.52457 -0.4201,0.16663 -1.00427,0.34896 -1.41536,0.44176 -0.85723,0.19351 -2.10504,0.27749 -2.88184,0.19394 -0.98334,-0.10575 -1.77634,-0.36813 -2.59578,-0.85885 -0.23133,-0.13853 -0.75866,-0.50638 -0.80437,-0.56111 -0.007,-0.008 -0.0655,-0.0572 -0.13104,-0.10972 -0.0655,-0.0525 -0.24284,-0.21892 -0.39405,-0.36984 -0.60851,-0.60731 -1.04631,-1.18902 -1.5264,-2.02816 -0.13111,-0.22916 -0.49318,-0.98041 -0.60373,-1.25268 -0.45953,-1.1317 -0.80925,-2.46602 -0.94954,-3.62283 l -0.0284,-0.23461 -0.12207,-0.0964 c -0.54811,-0.4326 -1.06161,-0.96689 -1.47449,-1.53417 -0.71154,-0.97763 -1.21231,-2.19604 -1.4661,-3.56717 -0.13129,-0.70928 -0.15606,-3.11861 -0.041,-3.98473 0.10822,-0.81443 0.37329,-1.90814 0.65635,-2.70818 0.13438,-0.37982 0.33165,-0.89144 0.4186,-1.08567 0.0323,-0.0722 0.0756,-0.16881 0.0962,-0.21474 0.18618,-0.41561 0.52654,-1.07034 0.76769,-1.47672 0.10031,-0.16905 0.53041,-0.83376 0.58067,-0.89742 0.0104,-0.0131 0.12272,-0.16344 0.24968,-0.33405 0.12696,-0.1706 0.24217,-0.32184 0.25602,-0.33609 0.0138,-0.0142 0.0628,-0.0728 0.1087,-0.13004 0.0815,-0.10162 0.20755,-0.24779 0.37994,-0.44057 0.1195,-0.13364 0.76002,-0.77244 0.8613,-0.85899 0.0461,-0.0394 0.15876,-0.13633 0.25042,-0.21546 0.0917,-0.0791 0.20599,-0.17293 0.25407,-0.20842 0.0481,-0.0355 0.10176,-0.0782 0.1193,-0.0948 0.10226,-0.0971 0.86154,-0.61469 0.90166,-0.61469 0.0138,0 0.025,-0.0107 0.025,-0.0239 0,-0.0131 0.01,-0.0239 0.0214,-0.0239 0.0118,0 0.0896,-0.0411 0.17299,-0.0913 0.75629,-0.45572 1.83149,-0.85896 2.77624,-1.04117 0.96752,-0.18661 2.51834,-0.19108 3.9519,-0.0114 1.70038,0.21314 3.3247,0.79831 4.47519,1.61223 0.0811,0.0574 0.15805,0.10431 0.17101,0.10431 0.0129,0 0.0271,0.008 0.0315,0.0181 0.004,0.01 0.0563,0.0554 0.11533,0.10106 0.059,0.0456 0.1189,0.0939 0.133,0.1072 0.0141,0.0133 0.0607,0.0511 0.10347,0.0839 0.0428,0.0328 0.0904,0.0704 0.10572,0.0835 0.0887,0.0759 0.43685,0.38573 0.45702,0.40672 0.16223,0.16879 0.3842,0.41086 0.48942,0.53375 0.0721,0.0842 0.14224,0.16471 0.15589,0.17895 0.0471,0.0492 0.31286,0.40844 0.46918,0.63434 0.34753,0.50217 0.73722,1.22647 0.95204,1.7695 0.0537,0.1357 0.10646,0.25755 0.11729,0.27078 0.0447,0.0546 0.38754,1.13092 0.4987,1.56554 0.14104,0.55149 0.33597,1.56808 0.33597,1.75214 0,0.12118 -0.004,0.13002 -0.0656,0.14446 -0.0361,0.008 -0.14615,0.0481 -0.24457,0.0881 -0.54198,0.22021 -1.15287,0.74234 -1.52711,1.30521 -0.0567,0.0853 -0.12169,0.18259 -0.14437,0.2162 -0.13224,0.19589 -0.30068,0.6031 -0.39913,0.9649 -0.0619,0.22739 -0.0649,0.2644 -0.0649,0.7874 4e-5,0.42086 0.0102,0.60925 0.0437,0.80811 0.0963,0.57263 0.25703,1.04946 0.49755,1.47612 0.39546,0.70153 0.97603,1.19855 1.73742,1.48739 l 0.20281,0.0769 0.007,0.10511 c 0.0128,0.18984 -0.16082,1.44122 -0.29511,2.1272 -0.0832,0.42488 -0.36246,1.58163 -0.41539,1.72052 -0.0148,0.0388 -0.0468,0.1408 -0.0711,0.22668 -0.10169,0.35913 -0.45032,1.28967 -0.65635,1.7519 -0.35854,0.80438 -1.01911,1.93387 -1.48289,2.53558 -0.26003,0.33736 -0.33023,0.42707 -0.34272,0.43798 -0.0282,0.0246 -0.16752,0.21023 -0.16752,0.22318 0,0.007 0.0252,0.0381 0.056,0.0682 0.0821,0.0801 0.33494,0.37832 0.55219,0.65117 0.10449,0.13123 0.19564,0.24397 0.20256,0.25053 0.007,0.007 0.0763,0.0925 0.15419,0.19089 0.0779,0.0984 0.18507,0.23264 0.23817,0.29826 0.0531,0.0656 0.1047,0.13004 0.11466,0.14316 0.44583,0.58743 1.02502,1.19254 1.39841,1.46101 0.49893,0.35874 0.88545,0.48222 1.41173,0.45098 0.8991,-0.0534 1.53329,-0.51791 1.84985,-1.35499 0.0921,-0.24353 0.13943,-0.2826 0.34242,-0.2826 0.22141,0 0.36538,0.0534 0.46828,0.17359 0.0771,0.0901 0.0834,0.10939 0.0831,0.25423 -2.7e-4,0.1405 -0.0555,0.38147 -0.11804,0.51468 -0.0123,0.0262 -0.0554,0.12736 -0.0958,0.22469 -0.27697,0.66758 -0.872,1.31559 -1.49692,1.63023 -0.44746,0.22529 -0.49356,0.23451 -1.43852,0.28781 -0.11155,0.006 -0.41756,0.002 -0.68003,-0.01 z m -9.60702,-2.72999 c 0.4763,-0.0677 1.00449,-0.23013 1.42736,-0.43895 0.18135,-0.0896 0.59476,-0.33802 0.68852,-0.41382 0.5461,-0.44148 0.81852,-0.71208 1.17651,-1.16866 0.0284,-0.0363 0.018,-0.0592 -0.0872,-0.19086 -0.35779,-0.44807 -0.84089,-0.79557 -1.25744,-0.9045 -0.39383,-0.10299 -1.12277,-0.0301 -1.60885,0.16089 -0.33395,0.13122 -0.52963,0.26758 -0.79792,0.55605 -0.12342,0.1327 -0.21126,0.17417 -0.39706,0.18746 -0.29287,0.021 -0.56834,-0.0905 -0.66899,-0.27066 -0.11746,-0.21024 -0.12098,-0.56709 -0.008,-0.77529 0.12815,-0.23546 0.53823,-0.5833 0.90808,-0.77027 0.43495,-0.21989 0.99592,-0.36821 1.64075,-0.43383 0.39307,-0.04 1.21502,-0.0455 1.56739,-0.0105 0.57857,0.0575 1.14297,0.19401 1.57291,0.38049 0.12179,0.0528 0.22932,0.096 0.23895,0.096 0.0308,0 0.2858,-0.62865 0.42578,-1.04987 0.21756,-0.65465 0.30573,-0.95051 0.41954,-1.40778 0.32016,-1.28634 0.58736,-2.95877 0.70334,-4.40229 0.23699,-2.94952 0.21539,-5.6299 -0.0626,-7.76665 -0.18629,-1.43208 -0.48583,-2.70698 -0.90253,-3.84135 -0.0747,-0.2033 -0.14384,-0.38046 -0.15368,-0.39371 -0.01,-0.0132 -0.0375,-0.0778 -0.0615,-0.14337 -0.0606,-0.16599 -0.36162,-0.78032 -0.47074,-0.96082 -0.0497,-0.0823 -0.0904,-0.15419 -0.0904,-0.15986 0,-0.006 -0.0306,-0.0565 -0.068,-0.11292 -0.0374,-0.0564 -0.11688,-0.17776 -0.17656,-0.26963 -0.3756,-0.57805 -0.84826,-1.09034 -1.45098,-1.57261 -0.2343,-0.18749 -0.77812,-0.4985 -1.14384,-0.65416 -0.93339,-0.3973 -2.17997,-0.5397 -3.16153,-0.36114 -0.26185,0.0476 -0.78441,0.19932 -0.97829,0.28398 -0.52357,0.22861 -1.04181,0.53768 -1.51515,0.9036 -0.2458,0.19001 -0.929,0.86599 -1.17416,1.16173 -0.4081,0.49229 -0.90412,1.20419 -1.1222,1.61059 -0.0317,0.0591 -0.12005,0.21938 -0.19637,0.35626 -0.12437,0.22309 -0.53758,1.05953 -0.53758,1.08821 0,0.006 -0.0494,0.1268 -0.1097,0.26775 -0.21498,0.50227 -0.54164,1.427 -0.67633,1.9146 -0.2286,0.82757 -0.39406,1.59333 -0.5001,2.31449 -0.0125,0.0853 -0.0342,0.2322 -0.048,0.32644 -0.1047,0.71069 -0.15387,2.10505 -0.097,2.75158 0.0799,0.90866 0.23509,1.6779 0.45763,2.268 l 0.10106,0.26798 0.0517,-0.43883 c 0.1208,-1.02606 0.27552,-1.8641 0.52153,-2.8249 0.43658,-1.70507 1.07775,-3.29074 1.83313,-4.53352 0.48163,-0.79239 0.92038,-1.34889 1.3164,-1.66967 0.58823,-0.47648 1.65461,-0.48172 2.59415,-0.0128 0.31169,0.15559 0.51643,0.31164 0.59055,0.45014 0.0549,0.10259 0.0206,0.22864 -0.20866,0.76699 -0.16605,0.38989 -0.55174,1.43741 -0.87417,2.37416 -0.37633,1.09338 -0.73748,2.27008 -0.98131,3.19731 -0.20374,0.77476 -0.34191,1.33897 -0.44994,1.83727 -0.0597,0.27559 -0.11925,0.54403 -0.13224,0.59652 -0.0419,0.16951 -0.16383,0.84819 -0.22498,1.25268 -0.17058,1.1285 -0.2526,1.93852 -0.2526,2.49478 v 0.2662 l 0.18492,0.0152 c 0.19691,0.0162 0.64781,-0.0148 0.86495,-0.0594 0.89259,-0.1834 1.66348,-0.60719 2.38863,-1.31311 0.1392,-0.13551 0.32173,-0.32691 0.40563,-0.42534 0.0839,-0.0984 0.15823,-0.18432 0.1652,-0.19088 0.0376,-0.0354 0.26572,-0.35562 0.41649,-0.58459 0.47048,-0.71454 0.81253,-1.4609 1.02244,-2.23097 0.10853,-0.3982 0.14441,-0.65695 0.12569,-0.90671 -0.0457,-0.61037 -0.046,-0.58327 0.007,-0.68701 0.10205,-0.20005 0.3345,-0.31519 0.67216,-0.33295 0.57781,-0.0304 0.85744,0.24356 0.85744,0.84 0,0.92632 -0.46086,2.28821 -1.11235,3.28704 -0.0575,0.0882 -0.10454,0.1664 -0.10454,0.17387 0,0.0114 -0.35174,0.52286 -0.41016,0.59641 -0.0104,0.0131 -0.0696,0.0883 -0.13146,0.16702 -0.0619,0.0787 -0.11865,0.14854 -0.12616,0.1551 -0.008,0.007 -0.0953,0.10857 -0.19512,0.22668 -0.21173,0.25056 -0.77466,0.81119 -0.99823,0.99414 -0.0853,0.0698 -0.16682,0.13774 -0.18115,0.15097 -0.10475,0.0968 -0.73321,0.53706 -0.76655,0.53706 -0.0168,0 -0.0307,0.008 -0.0308,0.0179 -1e-4,0.01 -0.0243,0.0301 -0.0537,0.045 -0.0294,0.0149 -0.16092,0.0847 -0.29222,0.1551 -0.83776,0.4492 -1.61779,0.66408 -2.41285,0.66466 l -0.2655,2e-4 0.0103,0.11334 c 0.15554,1.70412 0.52724,3.1527 1.10484,4.30575 0.17807,0.35547 0.26263,0.50118 0.42659,0.735 0.53227,0.7591 1.12016,1.20794 1.78093,1.35972 0.24062,0.0553 0.71569,0.0606 1.05869,0.0118 z m 17.06348,2.59864 c -0.53222,-0.0985 -0.65537,-0.13564 -0.99022,-0.29886 -0.27542,-0.13426 -0.35285,-0.18071 -0.54631,-0.32771 -0.31756,-0.24132 -0.58746,-0.533 -0.84205,-0.91002 -0.11233,-0.16635 -0.29381,-0.46825 -0.29381,-0.48876 0,-0.005 -0.0313,-0.0768 -0.0696,-0.15978 -0.15701,-0.34007 -0.33574,-0.85873 -0.37262,-1.08136 -0.009,-0.0525 -0.0304,-0.1545 -0.0481,-0.22668 -0.0544,-0.22101 -0.12968,-0.80539 -0.17816,-1.38391 -0.0298,-0.35548 -0.0296,-1.80791 2.4e-4,-2.31449 0.0535,-0.90615 0.1863,-2.20552 0.31101,-3.04223 0.19414,-1.30247 0.6062,-3.50755 0.88234,-4.72179 0.0534,-0.23478 0.094,-0.43568 0.0902,-0.44644 -0.004,-0.0108 -0.0605,0.0139 -0.12605,0.0548 -0.11322,0.0706 -0.92864,0.48379 -1.15733,0.58645 -0.53187,0.23875 -1.48569,0.55422 -1.67569,0.55422 -0.0233,0 -0.0423,0.007 -0.0423,0.016 0,0.0257 -0.16144,0.79691 -0.25388,1.21281 -0.10041,0.45177 -0.45553,1.86492 -0.54565,2.17132 -0.0347,0.11811 -0.0844,0.29528 -0.11039,0.3937 -0.1978,0.7495 -0.89572,2.89982 -1.17714,3.62682 -0.38823,1.00293 -0.58585,1.48993 -0.74072,1.82534 -0.0303,0.0656 -0.0978,0.21632 -0.14994,0.3349 -0.11985,0.2724 -0.39998,0.83225 -0.5589,1.11699 -0.067,0.1201 -0.13384,0.23983 -0.14847,0.26608 -0.0716,0.12852 -0.0991,0.1551 -0.16026,0.1551 -0.0546,0 -0.12082,-0.0716 -0.45358,-0.49008 -0.22516,-0.28317 -0.39297,-0.51585 -0.39746,-0.55111 -0.005,-0.0405 0.0317,-0.12642 0.10964,-0.25556 0.455,-0.7539 1.03147,-1.96114 1.43736,-3.0101 0.0813,-0.20998 0.17268,-0.4462 0.20318,-0.52494 0.46824,-1.20889 1.02231,-3.01901 1.32317,-4.32269 0.16341,-0.70805 0.36066,-1.80329 0.33025,-1.8337 -0.007,-0.007 -0.10842,-0.0238 -0.22505,-0.037 -1.06275,-0.1204 -1.8681,-0.68307 -2.34504,-1.63838 -0.13852,-0.27746 -0.20821,-0.47212 -0.3013,-0.84157 -0.11309,-0.44883 -0.15942,-0.83762 -0.16064,-1.34813 -0.002,-0.64638 0.0812,-1.02325 0.33641,-1.53162 0.35584,-0.70891 1.0287,-1.25062 1.80516,-1.45329 0.13019,-0.034 0.2591,-0.0438 0.58459,-0.0444 0.36431,-7.3e-4 0.44132,0.006 0.60389,0.0531 0.86904,0.25156 1.42668,1.02271 1.59143,2.20077 0.0479,0.34263 0.0553,1.08044 0.0153,1.52708 -0.052,0.58008 -0.18136,1.34554 -0.29384,1.73825 -0.0475,0.16572 -0.0299,0.18297 0.15058,0.14788 0.44524,-0.0865 0.84754,-0.27342 1.7742,-0.82417 0.34777,-0.20669 0.686,-0.39998 0.75161,-0.42953 0.26538,-0.11949 0.73666,-0.24916 1.0889,-0.2996 0.27582,-0.0395 0.81174,-0.0168 1.0347,0.0439 0.52077,0.14169 0.85109,0.49011 0.95614,1.00854 0.048,0.23677 0.0363,0.74439 -0.0246,1.07237 -0.1956,1.05274 -0.23957,1.29907 -0.2875,1.6106 -0.0303,0.19685 -0.0884,0.57265 -0.12921,0.83512 -0.1457,0.93784 -0.16963,1.10616 -0.25131,1.76746 -0.41742,3.37977 -0.45761,5.49188 -0.13255,6.96554 0.13089,0.59341 0.30179,0.97152 0.5577,1.23392 0.15591,0.15987 0.23407,0.19503 0.4328,0.19471 0.37882,-6.2e-4 0.87595,-0.32458 1.23968,-0.80786 0.13656,-0.18145 0.13929,-0.18576 0.35779,-0.56514 0.15442,-0.26812 0.5689,-1.09271 0.59766,-1.18901 0.01,-0.0328 0.026,-0.0704 0.0361,-0.0835 0.044,-0.0574 0.52574,-1.25853 0.79433,-1.98044 0.2835,-0.76195 0.69343,-1.96636 0.98267,-2.88714 0.0618,-0.19685 0.16388,-0.51897 0.22677,-0.71582 0.17244,-0.53971 0.72699,-2.39732 0.95806,-3.20926 0.12049,-0.42338 0.17965,-0.6216 0.35314,-1.18322 0.0793,-0.25662 0.1116,-0.32787 0.18128,-0.39962 0.11785,-0.12135 0.20369,-0.15991 0.39086,-0.1756 0.40557,-0.034 0.68349,0.22341 0.63279,0.58609 -0.0353,0.25284 -0.49608,2.02527 -0.82576,3.17665 -0.0921,0.32152 -0.19193,0.67048 -0.22192,0.77547 -0.27062,0.9472 -0.89807,2.9015 -1.209,3.76568 -0.0528,0.14673 -0.12636,0.35267 -0.16347,0.45766 -0.0912,0.25805 -0.19484,0.53803 -0.27375,0.73968 -0.22951,0.58649 -0.34919,0.88225 -0.50211,1.24075 -1.04401,2.44764 -1.88087,3.68405 -2.85053,4.21146 -0.45398,0.24693 -0.89201,0.35933 -1.44428,0.37061 -0.20997,0.004 -0.40861,0.003 -0.44142,-0.003 z m -5.95602,-15.68 c 0.045,-0.1519 0.14307,-0.65289 0.19508,-0.99618 0.10809,-0.71343 0.10637,-1.5691 -0.004,-2.02816 -0.041,-0.17048 -0.14074,-0.4208 -0.21389,-0.53687 -0.11298,-0.17926 -0.30514,-0.31018 -0.45526,-0.31018 -0.13938,0 -0.31676,0.19422 -0.39924,0.43716 -0.16404,0.48321 -0.15851,1.42626 0.0123,2.104 0.16172,0.64151 0.44385,1.14235 0.74797,1.32781 0.0893,0.0545 0.10159,0.0547 0.11708,0.002 z m 13.4602,-0.71383 c -1.19499,-0.0574 -2.33659,-0.29154 -3.25232,-0.66699 -0.5443,-0.22316 -1.24805,-0.63814 -1.63911,-0.96654 -0.36146,-0.30353 -0.72342,-0.6613 -0.95047,-0.93945 -0.075,-0.0919 -0.14935,-0.1827 -0.16525,-0.20186 -0.11978,-0.14434 -0.47787,-0.67682 -0.60238,-0.89573 -0.20721,-0.36433 -0.5606,-1.05862 -0.5606,-1.10138 0,-0.006 -0.036,-0.0877 -0.0801,-0.18223 -0.044,-0.0945 -0.0928,-0.211 -0.10838,-0.25881 -0.0215,-0.066 -0.0438,-0.0896 -0.0929,-0.0981 -0.0838,-0.0145 -1.06451,-0.26774 -1.2815,-0.33091 -0.74432,-0.21665 -1.29651,-0.45666 -1.76927,-0.76903 -0.70647,-0.46679 -1.27857,-1.06661 -1.881,-1.97212 -0.0916,-0.13774 -0.17287,-0.25581 -0.18053,-0.26237 -0.008,-0.007 -0.0503,-0.0656 -0.0947,-0.13123 -0.11843,-0.17496 -0.43296,-0.47705 -0.63189,-0.60692 -0.35835,-0.23393 -0.88482,-0.38507 -1.70606,-0.48978 -0.65907,-0.084 -1.02658,-0.15632 -1.17513,-0.23118 -0.0663,-0.0334 -0.0895,-0.06 -0.0895,-0.10284 0,-0.0318 0.0134,-0.0661 0.0298,-0.0764 0.0164,-0.0103 0.32511,-0.0262 0.686,-0.0354 0.44323,-0.0113 0.72198,-0.0293 0.85898,-0.0556 0.70127,-0.13442 1.3172,-0.3703 2.43379,-0.93207 0.77489,-0.38985 0.84223,-0.4199 1.13682,-0.50728 0.35436,-0.1051 0.43566,-0.12136 0.75045,-0.15009 0.44013,-0.0402 0.80174,0.0277 1.09625,0.20588 0.27655,0.16726 0.57172,0.53057 0.57172,0.70369 0,0.0922 -0.0248,0.0911 -0.32073,-0.0137 -0.48804,-0.17281 -0.68044,-0.2106 -1.07512,-0.21118 -0.38287,-5.7e-4 -0.54308,0.0294 -0.89477,0.16726 -0.66724,0.26159 -1.04849,0.71812 -1.04959,1.25686 -5.3e-4,0.25736 0.10022,0.62692 0.25383,0.93107 0.058,0.11491 0.28857,0.49049 0.31762,0.51746 0.007,0.007 0.0712,0.0817 0.14242,0.16702 0.26728,0.31993 0.93942,0.93057 1.02429,0.93057 0.0128,0 0.0269,0.009 0.0312,0.0195 0.008,0.0197 0.29419,0.21906 0.3144,0.21906 0.006,0 0.0844,0.0448 0.1743,0.0996 0.32663,0.19908 0.9197,0.45982 1.39232,0.61213 0.30376,0.0979 0.80189,0.21226 0.82478,0.18936 0.0165,-0.0165 -0.0145,-0.19326 -0.14122,-0.80569 -0.21607,-1.04419 -0.26441,-1.4874 -0.24722,-2.26676 0.0133,-0.60037 0.0429,-0.82373 0.15162,-1.14368 0.25316,-0.74472 0.75517,-1.30398 1.51154,-1.68392 0.32361,-0.16256 0.9061,-0.34754 1.45574,-0.46231 0.0722,-0.0151 0.28692,-0.0599 0.47721,-0.0997 0.19029,-0.0397 0.4104,-0.0873 0.48914,-0.10576 0.0787,-0.0184 0.21144,-0.0455 0.29488,-0.0601 0.0834,-0.0147 0.25523,-0.0521 0.38177,-0.0832 0.12653,-0.0311 0.31596,-0.073 0.42094,-0.0931 0.31598,-0.0606 1.56111,-0.37147 1.70604,-0.42594 0.0197,-0.007 0.14317,-0.047 0.2744,-0.088 0.51911,-0.16206 1.38013,-0.55865 2.09234,-0.96373 0.2342,-0.1332 0.2904,-0.15526 0.42525,-0.16689 0.0855,-0.007 0.17405,-0.0206 0.19685,-0.0293 0.0387,-0.0148 0.0413,0.0209 0.0398,0.52947 -0.003,0.97294 -0.0343,1.55898 -0.10199,1.91294 -0.0692,0.36151 -0.23944,0.95033 -0.37899,1.31042 -0.099,0.2555 -0.41915,0.90415 -0.52717,1.06815 -0.12033,0.1827 -0.35924,0.52517 -0.39115,0.56072 -0.0177,0.0197 -0.10081,0.12169 -0.18476,0.22668 -0.22711,0.28403 -0.70241,0.76396 -0.95751,0.96684 -0.81059,0.64467 -1.54077,0.96293 -2.41575,1.05294 -0.27263,0.0281 -0.93342,0.0132 -1.10616,-0.0248 -0.0565,-0.0125 -0.16722,-0.0353 -0.24596,-0.0508 -0.46811,-0.092 -1.06321,-0.34943 -1.56287,-0.67614 -0.30793,-0.20134 -0.35791,-0.24623 -0.35791,-0.32142 v -0.0591 l 0.23596,0.0144 c 0.12977,0.008 0.30425,0.0253 0.38773,0.0387 1.27687,0.20478 2.28705,0.22389 3.01506,0.0571 0.46761,-0.10716 0.94047,-0.30329 1.23251,-0.5112 0.0348,-0.0248 0.0742,-0.0451 0.0875,-0.0451 0.0133,0 0.0277,-0.008 0.0321,-0.0183 0.004,-0.0101 0.0402,-0.0432 0.0795,-0.0736 0.20162,-0.15572 0.80802,-0.74669 0.95872,-0.93431 0.037,-0.0461 0.0941,-0.1139 0.12694,-0.15072 0.0328,-0.0368 0.15449,-0.20313 0.27039,-0.36958 0.21265,-0.30537 0.59922,-1.03443 0.66852,-1.26079 0.0195,-0.0636 0.069,-0.22295 0.11016,-0.35419 0.14163,-0.45191 0.24453,-1.03523 0.27049,-1.53325 0.007,-0.14157 0.005,-0.14852 -0.0415,-0.13376 -0.0777,0.0246 -0.34786,0.15519 -0.47875,0.23149 -0.68539,0.39954 -1.53545,0.69194 -2.67239,0.91923 -0.26247,0.0525 -0.55775,0.1074 -0.65617,0.12206 -0.0984,0.0147 -0.22727,0.036 -0.28633,0.0474 -0.0591,0.0114 -0.18253,0.032 -0.2744,0.0459 -1.58075,0.23831 -2.29031,0.43682 -2.85132,0.79772 -0.22213,0.1429 -0.22979,0.14925 -0.45338,0.37582 -0.31265,0.31682 -0.49434,0.65737 -0.61471,1.15219 -0.052,0.21375 -0.0582,1.11602 -0.0102,1.48274 0.0538,0.41125 0.19603,1.09317 0.36075,1.7299 0.12431,0.48055 0.12302,0.47698 0.17769,0.48832 0.0627,0.013 1.06935,0.16077 1.55393,0.22809 1.4233,0.19773 2.3709,0.46241 3.00551,0.8395 0.52326,0.31092 1.20616,1.01093 1.6804,1.72249 0.47547,0.71342 0.76819,1.37177 0.98238,2.20948 0.081,0.31665 0.18064,0.9526 0.15839,1.01057 -0.0131,0.0342 -0.0569,0.0388 -0.33201,0.0349 -0.1743,-0.002 -0.38133,-0.008 -0.46007,-0.0114 z m -0.23943,-1.01607 c -0.0513,-0.30668 -0.2007,-0.74613 -0.39147,-1.15128 -0.42719,-0.90725 -1.19345,-1.74275 -1.99333,-2.17347 -0.16898,-0.091 -0.68014,-0.29672 -0.88028,-0.35429 -0.39205,-0.11277 -0.79897,-0.20415 -1.2199,-0.27397 -0.0787,-0.0131 -0.20759,-0.035 -0.28633,-0.0486 -0.11846,-0.0206 -0.52719,-0.0705 -1.28251,-0.15671 -0.0623,-0.007 -0.11334,-0.004 -0.11334,0.008 0,0.0242 0.16511,0.41174 0.1902,0.44644 0.009,0.0131 0.0724,0.12777 0.13974,0.25477 0.10799,0.20356 0.20256,0.36227 0.2605,0.43719 0.0102,0.0131 0.072,0.10439 0.13754,0.20282 0.0655,0.0984 0.12512,0.18432 0.1325,0.19088 0.007,0.007 0.0973,0.11394 0.19972,0.23861 0.21858,0.26596 0.53486,0.59547 0.75297,0.78446 0.0852,0.0738 0.16702,0.14547 0.1819,0.15928 0.42162,0.39121 1.3895,0.96173 2.00159,1.17986 0.11812,0.0421 0.23623,0.0859 0.26247,0.0975 0.0263,0.0115 0.17657,0.0528 0.33405,0.0919 0.5004,0.12398 0.78444,0.16166 1.24882,0.16565 l 0.34211,0.003 z"
       id="path1" /></g></svg>
